<svg version="1.1" xmlns="http://www.w3.org/2000/svg" viewBox="0 0 1197.5076814229192 561.2902005369313" width="2395.0153628458384" height="1122.5804010738625">
  <!-- svg-source:excalidraw -->
  
  <defs>
    <style class="style-fonts">
      @font-face {
        font-family: "Virgil";
        src: url("https://excalidraw.com/Virgil.woff2");
      }
      @font-face {
        font-family: "Cascadia";
        src: url("https://excalidraw.com/Cascadia.woff2");
      }
    </style>
  </defs>
  <rect x="0" y="0" width="1197.5076814229192" height="561.2902005369313" fill="#ffffff"></rect><g stroke-linecap="round"><g transform="translate(253.15092395497447 116.97038343731424) rotate(0 110.72399640280756 -1.4281147208064908)"><path d="M0.56 -0.28 C37.24 -0.71, 183.16 -2.14, 219.96 -2.58 M-0.61 -1.47 C36.44 -1.75, 185.17 -1.24, 222.05 -1.35" stroke="#596979" stroke-width="1" fill="none"></path></g><g transform="translate(253.15092395497447 116.97038343731424) rotate(0 110.72399640280756 -1.4281147208064908)"><path d="M220.55 -0.56 L209.92 4.04 L206.62 -6.24 L220.05 -0.64" stroke="none" stroke-width="0" fill="#596979" fill-rule="evenodd"></path><path d="M221.71 -2.83 C217.4 0.81, 213.02 1.98, 208.92 6.03 M222.34 -0.78 C219.22 -0.74, 216.38 1.41, 208.41 5.52 M209.02 6.08 C207.58 2.47, 208.93 -1.38, 208.36 -8.7 M208.38 5.57 C208.65 -0.25, 208.96 -4.83, 208.81 -7.43 M209.52 -6.58 C212.64 -4.92, 217.92 -4.72, 222.94 -0.7 M208.14 -8.03 C212.35 -6.55, 215.16 -5.04, 222.01 -1.25 M222.05 -1.35 C222.05 -1.35, 222.05 -1.35, 222.05 -1.35 M222.05 -1.35 C222.05 -1.35, 222.05 -1.35, 222.05 -1.35" stroke="#596979" stroke-width="1" fill="none"></path></g></g><mask></mask><g transform="translate(301.7801509164756 82.00610500217874) rotate(0 60.5 12)"><text x="60.5" y="17" font-family="Helvetica, Segoe UI Emoji" font-size="20px" fill="black" text-anchor="middle" style="white-space: pre;" direction="ltr">Send request</text></g><g transform="translate(227.58875289320395 16.090634810503275) rotate(0 26.5 12)"><text x="26.5" y="17" font-family="Helvetica, Segoe UI Emoji" font-size="20px" fill="black" text-anchor="middle" style="white-space: pre;" direction="ltr">Client</text></g><g stroke-linecap="round"><g transform="translate(256.18763391515097 45.19019007610564) rotate(0 -2.030321732595894 250.66136031108636)"><path d="M-1.18 -0.59 C-1.76 83.11, -2.51 417.94, -2.88 501.91" stroke="black" stroke-width="1.5" fill="none" stroke-dasharray="8 9"></path></g></g><mask></mask><g transform="translate(437.6953635779257 13.800231735039915) rotate(0 39.5 12)"><text x="39.5" y="17" font-family="Helvetica, Segoe UI Emoji" font-size="20px" fill="black" text-anchor="middle" style="white-space: pre;" direction="ltr">Gateway</text></g><g stroke-linecap="round"><g transform="translate(478.1224437577299 44.63962934535107) rotate(0 -0.12012887805173023 252.85192987801935)"><path d="M0.22 -0.95 C0.34 83.59, -0.54 422.29, -0.46 506.65" stroke="black" stroke-width="1.5" fill="none" stroke-dasharray="8 9"></path></g></g><mask></mask><g transform="translate(921.2715182619261 10.732275166003774) rotate(0 26.5 12)"><text x="26.5" y="17" font-family="Helvetica, Segoe UI Emoji" font-size="20px" fill="black" text-anchor="middle" style="white-space: pre;" direction="ltr">Redis</text></g><g stroke-linecap="round"><g transform="translate(946.5214359413928 41.51316248109708) rotate(0 0.9131147028873556 253.92269779859947)"><path d="M-0.95 -0.31 C-0.39 84.35, 2.39 423.48, 2.77 508.15" stroke="black" stroke-width="1.5" fill="none" stroke-dasharray="8 9"></path></g></g><mask></mask><g transform="translate(1099.5076814229192 12.155748224162267) rotate(0 44 12)"><text x="44" y="17" font-family="Helvetica, Segoe UI Emoji" font-size="20px" fill="black" text-anchor="middle" style="white-space: pre;" direction="ltr">Upstream</text></g><g stroke-linecap="round"><g transform="translate(1144.7562742456057 41.918978763366795) rotate(0 -0.8109082544663124 252.2104780161023)"><path d="M-0.31 0.37 C-0.56 84.54, -1.08 420.09, -1.31 504.05" stroke="black" stroke-width="1.5" fill="none" stroke-dasharray="8 9"></path></g></g><mask></mask><g stroke-linecap="round"><g transform="translate(480.97119002844204 140.10319593731424) rotate(0 330.694663840813 -0.34630059635253474)"><path d="M0.37 0.84 C110.55 0.95, 550.16 0.44, 660.13 0.36 M-0.89 0.23 C109.73 0, 551.7 -1.22, 662.28 -1.54" stroke="#596979" stroke-width="1" fill="none"></path></g><g transform="translate(480.97119002844204 140.10319593731424) rotate(0 330.694663840813 -0.34630059635253474)"><path d="M662.99 -0.63 L648.9 6.33 L649.46 -8.61 L663.92 -2.91" stroke="none" stroke-width="0" fill="#596979" fill-rule="evenodd"></path><path d="M663.33 -2.88 C659.77 -1.33, 656.83 2.46, 648.73 3.62 M662.82 -1.57 C657.82 0.57, 654.36 2.98, 648.15 5.57 M647.7 5.64 C649.53 1.64, 648.41 -2.43, 649.24 -9.09 M648.98 5.01 C648.94 -0.77, 649.24 -4.69, 648.54 -7.61 M649.32 -8.44 C651.88 -6.37, 657.06 -4.38, 663.09 -2.65 M648.77 -7.31 C651.98 -6.25, 655.74 -4.06, 661.71 -1.43 M662.28 -1.54 C662.28 -1.54, 662.28 -1.54, 662.28 -1.54 M662.28 -1.54 C662.28 -1.54, 662.28 -1.54, 662.28 -1.54" stroke="#596979" stroke-width="1" fill="none"></path></g></g><mask></mask><g stroke-linecap="round"><g transform="translate(1142.6738658387576 198.69226006720805) rotate(0 -330.89745616897955 -0.6043475868414134)"><path d="M0.32 0.65 C-110.09 0.45, -551.2 -1.36, -661.34 -1.86 M-0.97 -0.05 C-111.6 0.01, -552.16 -0.08, -662.12 -0.28" stroke="#596979" stroke-width="1" fill="none"></path></g><g transform="translate(1142.6738658387576 198.69226006720805) rotate(0 -330.89745616897955 -0.6043475868414134)"><path d="M-660.31 0.03 L-647.78 -7.94 L-650.07 6.41 L-660.8 -1.24" stroke="none" stroke-width="0" fill="#596979" fill-rule="evenodd"></path><path d="M-661.3 0.13 C-656.65 -1.4, -651.92 -4.25, -647.68 -7.27 M-662.08 0.34 C-658.53 -1.86, -653.8 -3.41, -648.48 -6.18 M-648.77 -7.8 C-648.43 -3.71, -647.37 -1.35, -648.42 6.02 M-648.14 -6.99 C-647.98 -3.77, -648.93 0.42, -648.66 5.89 M-647.43 6.95 C-651.12 3.79, -655.19 4.62, -661.37 -0.53 M-648.48 5.42 C-653.07 4.12, -658.39 1.98, -662.86 0.16 M-662.12 -0.28 C-662.12 -0.28, -662.12 -0.28, -662.12 -0.28 M-662.12 -0.28 C-662.12 -0.28, -662.12 -0.28, -662.12 -0.28" stroke="#596979" stroke-width="1" fill="none"></path></g></g><mask></mask><g stroke-linecap="round"><g transform="translate(479.8616577955173 276.7229696931645) rotate(0 126.39497809757921 -0.23073203968692724)"><path d="M0.92 -0.05 C42.97 0, 210.99 0.91, 252.84 0.82 M-0.05 -1.12 C41.87 -1.47, 210.51 -1.22, 252.42 -0.97" stroke="#596979" stroke-width="1" fill="none"></path></g><g transform="translate(479.8616577955173 276.7229696931645) rotate(0 126.39497809757921 -0.23073203968692724)"><path d="M251.39 -1.63 L239.18 5.56 L238.61 -8.36 L252.17 -1.62" stroke="none" stroke-width="0" fill="#596979" fill-rule="evenodd"></path><path d="M252.36 0.29 C248.5 1.6, 242.02 4.58, 240.1 6.66 M252.55 -0.29 C248.19 0.99, 244.98 2.17, 239.54 5.28 M239.23 5.51 C238.79 1.65, 238.13 -1.14, 239.53 -6.56 M238.54 5.78 C238.26 -0.12, 238.97 -4.83, 239.17 -7.81 M237.77 -7.9 C243.64 -6.02, 250.14 -2.48, 252.88 -1.48 M239.42 -7.53 C242.71 -6.11, 245.16 -4.08, 251.68 -0.36 M252.42 -0.97 C252.42 -0.97, 252.42 -0.97, 252.42 -0.97 M252.42 -0.97 C252.42 -0.97, 252.42 -0.97, 252.42 -0.97" stroke="#596979" stroke-width="1" fill="none"></path></g></g><mask></mask><g stroke-linecap="round"><g transform="translate(476.3654090487289 235.62664041235894) rotate(0 -109.063343423411 -0.1831255892216177)"><path d="M0.55 0.18 C-35.81 0.2, -181.27 0.84, -217.45 0.7 M-0.62 -0.77 C-37.25 -1.13, -182.6 -1.17, -218.68 -0.96" stroke="#596979" stroke-width="1" fill="none"></path></g><g transform="translate(476.3654090487289 235.62664041235894) rotate(0 -109.063343423411 -0.1831255892216177)"><path d="M-218.67 0.37 L-205.59 -5.51 L-203.76 4 L-220.13 -1.43" stroke="none" stroke-width="0" fill="#596979" fill-rule="evenodd"></path><path d="M-218.45 -1.63 C-212.74 -2.8, -209.52 -5.58, -206.35 -7.39 M-218.26 -0.74 C-215.46 -1.91, -212.12 -3.86, -205.23 -6.61 M-204.19 -8.19 C-204.35 -4.04, -205.57 0.28, -204.77 5.49 M-205.55 -7.65 C-205.37 -2.8, -205.08 2.71, -205.05 5.2 M-206.19 6.7 C-208.28 1.73, -213.47 0.11, -218.46 -2.45 M-205.04 5.59 C-209.24 3.8, -213.82 0.66, -218.44 -0.81 M-218.68 -0.96 C-218.68 -0.96, -218.68 -0.96, -218.68 -0.96 M-218.68 -0.96 C-218.68 -0.96, -218.68 -0.96, -218.68 -0.96" stroke="#596979" stroke-width="1" fill="none"></path></g></g><mask></mask><g transform="translate(285.3472427712834 197.59814789959637) rotate(0 74.5 12)"><text x="74.5" y="17" font-family="Helvetica, Segoe UI Emoji" font-size="20px" fill="black" text-anchor="middle" style="white-space: pre;" direction="ltr">Return response</text></g><g transform="translate(484.58818071342637 239.38375758248594) rotate(0 119 12)"><text x="119" y="17" font-family="Helvetica, Segoe UI Emoji" font-size="20px" fill="black" text-anchor="middle" style="white-space: pre;" direction="ltr">Request response caching</text></g><g stroke-linecap="round"><g transform="translate(254.93280572894912 386.74412260805207) rotate(0 111.62796941497473 0.26938896140040924)"><path d="M1.19 0.17 C37.84 0.21, 183.9 1.19, 220.51 1.35 M0.36 -0.78 C37.35 -0.6, 186.3 -1.1, 222.9 -0.54" stroke="#158bc2" stroke-width="1" fill="none"></path></g><g transform="translate(254.93280572894912 386.74412260805207) rotate(0 111.62796941497473 0.26938896140040924)"><path d="M224.4 1.21 L210.46 7.06 L207.83 -7.72 L222.26 -1.49" stroke="none" stroke-width="0" fill="#158bc2" fill-rule="evenodd"></path><path d="M223.12 -1.32 C218.73 1.45, 213.67 4.9, 208.17 6.9 M223.12 0.18 C217.25 1.38, 212.96 3.59, 209.52 5.86 M209.69 5.82 C209.96 -0.19, 209.54 -3.22, 209.34 -7.05 M208.87 5.34 C209.28 0.38, 208.69 -4.12, 209.97 -7.16 M210.13 -7.21 C214.36 -4.85, 218.22 -3.89, 222.83 0.51 M209.23 -6.36 C214.65 -4.55, 218.15 -2.55, 223.6 -0.78 M222.9 -0.54 C222.9 -0.54, 222.9 -0.54, 222.9 -0.54 M222.9 -0.54 C222.9 -0.54, 222.9 -0.54, 222.9 -0.54" stroke="#158bc2" stroke-width="1" fill="none"></path></g></g><mask></mask><g transform="translate(297.4831588627319 349.35959117032735) rotate(0 60.5 12)"><text x="60.5" y="17" font-family="Helvetica, Segoe UI Emoji" font-size="20px" fill="black" text-anchor="middle" style="white-space: pre;" direction="ltr">Send request</text></g><g stroke-linecap="round" transform="translate(10.000000000000028 91.50613615738678) rotate(0 14.569823253966476 14.56982325396649)"><path d="M14.52 0.85 C17.77 0.77, 22.11 1.9, 24.56 3.77 C27.01 5.64, 28.88 9.12, 29.22 12.07 C29.56 15.01, 28.16 18.76, 26.59 21.43 C25.01 24.09, 22.62 26.97, 19.76 28.07 C16.89 29.17, 12.2 29.09, 9.41 28.03 C6.63 26.97, 4.68 24.21, 3.06 21.72 C1.44 19.23, -0.63 16.15, -0.31 13.1 C0.02 10.05, 2.41 5.56, 5 3.43 C7.59 1.29, 13.18 0.88, 15.24 0.29 C17.3 -0.29, 17.21 -0.23, 17.35 -0.08 M8.56 0.1 C11.46 -1.07, 16.92 -0.69, 20.28 0.49 C23.65 1.66, 27.45 4.17, 28.74 7.13 C30.04 10.09, 28.88 15.31, 28.05 18.24 C27.21 21.16, 26.11 22.97, 23.76 24.7 C21.4 26.42, 17.11 28.48, 13.93 28.59 C10.74 28.7, 6.86 27.16, 4.65 25.36 C2.44 23.56, 1.1 20.76, 0.65 17.8 C0.21 14.84, 0.33 10.44, 2 7.59 C3.67 4.74, 9.2 1.87, 10.69 0.71 C12.18 -0.44, 10.9 0.32, 10.92 0.64" stroke="none" stroke-width="0" fill="#596979"></path><path d="M13.12 -0.72 C16.04 -1.19, 18.78 0.97, 21.35 2.66 C23.92 4.34, 27.42 6.5, 28.54 9.38 C29.65 12.27, 29.19 16.94, 28.03 19.98 C26.87 23.01, 24.21 26.03, 21.57 27.59 C18.93 29.14, 15.19 30.08, 12.19 29.3 C9.2 28.52, 5.48 25.39, 3.6 22.9 C1.72 20.4, 0.9 17.2, 0.91 14.32 C0.92 11.45, 1.5 8.05, 3.67 5.67 C5.83 3.29, 11.8 1.03, 13.91 0.06 C16.02 -0.91, 16.31 -0.36, 16.33 -0.16 M18.22 0.63 C20.87 1.48, 24.86 5.62, 26.79 8.52 C28.72 11.42, 30.53 14.94, 29.83 18.02 C29.12 21.09, 24.9 24.94, 22.56 26.97 C20.22 29, 18.47 30.4, 15.78 30.21 C13.1 30.02, 8.86 27.99, 6.46 25.82 C4.07 23.64, 2.17 20.21, 1.4 17.17 C0.62 14.12, 0.39 10.47, 1.82 7.53 C3.26 4.58, 7.11 0.72, 10.03 -0.51 C12.95 -1.74, 17.9 0.08, 19.36 0.14 C20.82 0.21, 18.73 -0.3, 18.79 -0.11" stroke="#596979" stroke-width="1" fill="none"></path></g><g transform="translate(19.67370913905461 94.32650589317473) rotate(0 6.5 12)"><text x="0" y="17" font-family="Helvetica, Segoe UI Emoji" font-size="20px" fill="white" text-anchor="start" style="white-space: pre;" direction="ltr">1</text></g><g stroke-linecap="round"><g transform="translate(479.1422700562405 425.8500394978346) rotate(0 125.88625996890289 0.7028104584535413)"><path d="M-1.01 0.52 C40.9 0.77, 208.59 0.48, 250.67 0.64 M0.66 -0.25 C42.99 0.19, 211.15 1.17, 252.79 1.66" stroke="#158bc2" stroke-width="1" fill="none"></path></g><g transform="translate(479.1422700562405 425.8500394978346) rotate(0 125.88625996890289 0.7028104584535413)"><path d="M252.44 3.19 L240.42 9.7 L239.14 -4.11 L253.15 1.78" stroke="none" stroke-width="0" fill="#158bc2" fill-rule="evenodd"></path><path d="M253.44 0.25 C248.31 2.52, 246.15 3.83, 239.87 6.92 M253.23 1.03 C248.76 3.95, 243.8 6.06, 239.76 8.1 M237.99 7.34 C239.59 5.67, 239.49 0.15, 238.82 -5.3 M238.99 7.58 C239.7 3.7, 239.11 0.39, 239.63 -5.09 M237.82 -5.17 C242.78 -4.61, 246.27 -2.8, 253.33 0.4 M238.7 -4.99 C243.38 -2.04, 247.55 -0.27, 253.52 1.14 M252.79 1.66 C252.79 1.66, 252.79 1.66, 252.79 1.66 M252.79 1.66 C252.79 1.66, 252.79 1.66, 252.79 1.66" stroke="#158bc2" stroke-width="1" fill="none"></path></g></g><mask></mask><g transform="translate(505.4975237258145 392.4311580479755) rotate(0 96 12)"><text x="96" y="17" font-family="Helvetica, Segoe UI Emoji" font-size="20px" fill="black" text-anchor="middle" style="white-space: pre;" direction="ltr">Get cached response</text></g><g stroke-linecap="round"><g transform="translate(730.5737506693965 495.3746453440772) rotate(0 -126.12391047222059 -1.3777511252934573)"><path d="M-1.11 0.08 C-43.05 -0.14, -210.33 -0.88, -252.11 -1.16 M0.5 -0.93 C-41.49 -1.49, -210.65 -2.36, -252.75 -2.83" stroke="#158bc2" stroke-width="1" fill="none"></path></g><g transform="translate(730.5737506693965 495.3746453440772) rotate(0 -126.12391047222059 -1.3777511252934573)"><path d="M-254.57 -2.57 L-240.69 -8.23 L-240.91 3.99 L-253.68 -1.98" stroke="none" stroke-width="0" fill="#158bc2" fill-rule="evenodd"></path><path d="M-252.65 -2.09 C-248.18 -3.16, -245.27 -7.18, -237.86 -8.52 M-252.14 -3.56 C-247.87 -4.42, -242.9 -6.71, -239.37 -8.95 M-238.86 -9.27 C-238.04 -5.28, -239.08 -0.8, -239.57 3.53 M-238.83 -9.11 C-239.51 -5.08, -239.26 -1.01, -239.1 3.74 M-238.39 3.26 C-243.77 1.53, -246.31 -0.08, -252.78 -1.85 M-239.48 4.03 C-243.67 2.08, -248.76 0.15, -252.93 -2.26 M-252.75 -2.83 C-252.75 -2.83, -252.75 -2.83, -252.75 -2.83 M-252.75 -2.83 C-252.75 -2.83, -252.75 -2.83, -252.75 -2.83" stroke="#158bc2" stroke-width="1" fill="none"></path></g></g><mask></mask><g transform="translate(55.68602101551119 72.5429172554276) rotate(0 80.5 36)"><text x="80.5" y="17" font-family="Helvetica, Segoe UI Emoji" font-size="20px" fill="black" text-anchor="middle" style="white-space: pre;" direction="ltr">Initial request</text><text x="80.5" y="41" font-family="Helvetica, Segoe UI Emoji" font-size="20px" fill="black" text-anchor="middle" style="white-space: pre;" direction="ltr">or request outside</text><text x="80.5" y="65" font-family="Helvetica, Segoe UI Emoji" font-size="20px" fill="black" text-anchor="middle" style="white-space: pre;" direction="ltr">cache timeframe</text></g><g transform="translate(492.0458156780062 455.0655025634005) rotate(0 109.5 12)"><text x="109.5" y="17" font-family="Helvetica, Segoe UI Emoji" font-size="20px" fill="black" text-anchor="middle" style="white-space: pre;" direction="ltr">Return cached response</text></g><g stroke-linecap="round" transform="translate(10.000000000000028 358.9649617889995) rotate(0 14.569823253966476 14.569823253966433)"><path d="M14.89 -0.17 C17.86 -0.1, 21.58 2.81, 23.98 4.88 C26.38 6.94, 28.84 9.11, 29.28 12.21 C29.72 15.3, 28.37 20.62, 26.63 23.44 C24.88 26.26, 21.93 28.37, 18.82 29.12 C15.71 29.87, 11 29.27, 7.97 27.95 C4.94 26.63, 1.88 23.91, 0.63 21.21 C-0.61 18.51, -0.34 14.69, 0.5 11.77 C1.35 8.85, 2.8 5.73, 5.71 3.69 C8.62 1.66, 15.62 -0.05, 17.94 -0.42 C20.27 -0.79, 19.58 0.97, 19.66 1.47 M12.88 1.3 C15.69 0.17, 17.72 0.04, 20.12 1.2 C22.53 2.36, 25.9 5.15, 27.3 8.24 C28.7 11.34, 29.11 16.82, 28.5 19.79 C27.88 22.76, 26.51 24.58, 23.61 26.04 C20.72 27.49, 14.49 28.67, 11.12 28.52 C7.76 28.38, 5.38 27.41, 3.44 25.16 C1.49 22.91, -0.36 18.44, -0.56 15.01 C-0.75 11.58, 0.32 6.9, 2.28 4.59 C4.24 2.28, 9.73 1.61, 11.19 1.15 C12.65 0.7, 10.97 1.89, 11.06 1.86" stroke="none" stroke-width="0" fill="#158bc2"></path><path d="M16.95 0.75 C19.71 0.93, 22.57 1.98, 24.47 4.28 C26.36 6.58, 28.09 11.26, 28.34 14.56 C28.59 17.85, 27.82 21.67, 25.98 24.05 C24.13 26.44, 20.13 28.22, 17.27 28.87 C14.4 29.53, 11.52 29.55, 8.78 27.99 C6.03 26.42, 2.25 22.58, 0.8 19.49 C-0.66 16.41, -1 12.48, 0.04 9.48 C1.09 6.49, 3.98 3.11, 7.08 1.52 C10.18 -0.07, 16.46 -0.16, 18.65 -0.07 C20.83 0.02, 20.25 1.76, 20.2 2.08 M20.04 2.24 C23.01 3.23, 26.79 6.05, 28.17 8.56 C29.55 11.08, 29.31 14.57, 28.33 17.33 C27.35 20.09, 24.42 23.27, 22.29 25.13 C20.15 26.99, 18.26 28.67, 15.51 28.5 C12.76 28.32, 8.24 26.05, 5.79 24.06 C3.33 22.07, 1.29 19.35, 0.77 16.58 C0.26 13.81, 1.33 10.19, 2.69 7.43 C4.06 4.68, 6.03 0.95, 8.98 0.04 C11.93 -0.86, 18.74 1.9, 20.37 2.03 C22 2.16, 18.74 0.73, 18.74 0.83" stroke="#158bc2" stroke-width="1" fill="none"></path></g><g transform="translate(19.956158262069465 361.7853315247876) rotate(0 6.5 12)"><text x="0" y="17" font-family="Helvetica, Segoe UI Emoji" font-size="20px" fill="white" text-anchor="start" style="white-space: pre;" direction="ltr">2</text></g><g transform="translate(55.593162733967006 353.66438725670423) rotate(0 75 24)"><text x="75" y="17" font-family="Helvetica, Segoe UI Emoji" font-size="20px" fill="black" text-anchor="middle" style="white-space: pre;" direction="ltr">Request within</text><text x="75" y="41" font-family="Helvetica, Segoe UI Emoji" font-size="20px" fill="black" text-anchor="middle" style="white-space: pre;" direction="ltr">cache timeframe</text></g><g stroke-linecap="round"><g transform="translate(475.01818268153454 539.444966491996) rotate(0 -110.29166105001525 -1.6280649149942974)"><path d="M0.97 -0.33 C-35.95 -0.79, -183.84 -2.76, -220.95 -2.93 M0.01 -1.55 C-37.05 -1.89, -184.46 -1.66, -221.55 -1.97" stroke="#158bc2" stroke-width="1" fill="none"></path></g><g transform="translate(475.01818268153454 539.444966491996) rotate(0 -110.29166105001525 -1.6280649149942974)"><path d="M-221.29 -1.83 L-208.36 -8.84 L-207.96 5.05 L-223.06 -0.63" stroke="none" stroke-width="0" fill="#158bc2" fill-rule="evenodd"></path><path d="M-221.96 -1.14 C-218.23 -4.39, -211.53 -7.26, -209.43 -7.53 M-221.73 -1.68 C-218.67 -3.82, -215.83 -4.27, -207.8 -7.59 M-208.88 -9.46 C-209.02 -2.75, -208.82 0.82, -207.78 3.55 M-207.67 -7.64 C-207.92 -4.29, -208.04 -0.65, -207.45 4.31 M-208.19 5.87 C-212.35 2.24, -216.02 -0.57, -220.64 -1.56 M-207.8 4.39 C-213.09 2.53, -218.44 -1.16, -221.53 -2.45 M-221.55 -1.97 C-221.55 -1.97, -221.55 -1.97, -221.55 -1.97 M-221.55 -1.97 C-221.55 -1.97, -221.55 -1.97, -221.55 -1.97" stroke="#158bc2" stroke-width="1" fill="none"></path></g></g><mask></mask><g transform="translate(257.8865675308656 501.5711763709653) rotate(0 109.5 12)"><text x="109.5" y="17" font-family="Helvetica, Segoe UI Emoji" font-size="20px" fill="black" text-anchor="middle" style="white-space: pre;" direction="ltr">Return cached response</text></g><g transform="translate(519.9179344606215 111.41901264272951) rotate(0 73.5 12)"><text x="73.5" y="17" font-family="Helvetica, Segoe UI Emoji" font-size="20px" fill="black" text-anchor="middle" style="white-space: pre;" direction="ltr">Forward request</text></g><g transform="translate(664.2302503033287 10) rotate(0 68 12)"><text x="68" y="17" font-family="Helvetica, Segoe UI Emoji" font-size="20px" fill="black" text-anchor="middle" style="white-space: pre;" direction="ltr">Caching server</text></g><g stroke-linecap="round"><g transform="translate(733.157330483133 40.83939761031115) rotate(0 0.6184135795791121 252.54862122344292)"><path d="M0.54 -0.24 C0.54 83.94, 0.77 420.94, 0.67 505.33" stroke="black" stroke-width="1.5" fill="none" stroke-dasharray="8 9"></path></g></g><mask></mask><g stroke-linecap="round"><g transform="translate(736.7519684550971 301.2678718044765) rotate(0 104.41376837378596 0.5885960669830865)"><path d="M0.85 -0.9 C35.5 -0.93, 174.33 0.43, 208.98 0.5 M-0.16 1.24 C34.18 1.37, 172.51 2.22, 207.75 2.06" stroke="#596979" stroke-width="1" fill="none"></path></g><g transform="translate(736.7519684550971 301.2678718044765) rotate(0 104.41376837378596 0.5885960669830865)"><path d="M207.59 3.35 L193.36 9.62 L193.71 -5.18 L208.18 2.89" stroke="none" stroke-width="0" fill="#596979" fill-rule="evenodd"></path><path d="M206.62 1.37 C202.47 3.67, 195.82 6.59, 194.24 9.7 M208.19 1.42 C203.11 3.87, 199.4 6.56, 194.81 8.08 M194.47 7.66 C193.89 2.81, 194.7 -1.4, 193.81 -3.76 M194.54 8.12 C194.23 5.14, 194.54 2.5, 193.92 -3.94 M193.61 -3.04 C197.68 -1.81, 202.58 -1.01, 209.01 1.92 M194.47 -3.74 C198.45 -1.95, 203.96 0.29, 207.97 2.7 M207.75 2.06 C207.75 2.06, 207.75 2.06, 207.75 2.06 M207.75 2.06 C207.75 2.06, 207.75 2.06, 207.75 2.06" stroke="#596979" stroke-width="1" fill="none"></path></g></g><mask></mask><g transform="translate(762.736805025887 270.5361157343543) rotate(0 68.5 12)"><text x="68.5" y="17" font-family="Helvetica, Segoe UI Emoji" font-size="20px" fill="black" text-anchor="middle" style="white-space: pre;" direction="ltr">Store response</text></g><g stroke-linecap="round"><g transform="translate(739.6486376203954 463.2319628423543) rotate(0 103.37557593838403 1.3377485783156544)"><path d="M0.5 0.58 C34.92 0.95, 173.14 2.5, 207.44 2.84 M-0.69 -0.16 C33.52 -0.24, 172.41 0.13, 206.73 0.82" stroke="#158bc2" stroke-width="1" fill="none"></path></g><g transform="translate(739.6486376203954 463.2319628423543) rotate(0 103.37557593838403 1.3377485783156544)"><path d="M207.02 0.67 L191.44 6.41 L192.24 -6.32 L206.96 1.91" stroke="none" stroke-width="0" fill="#158bc2" fill-rule="evenodd"></path><path d="M207.46 1.39 C201.82 2.41, 196.41 5.04, 192.1 5.85 M207.44 0.62 C200.99 3.43, 196.42 4.92, 193.34 7.34 M192.99 6.15 C193.8 4.19, 192.49 -1.48, 193.66 -5.05 M192.46 6.92 C193.44 2.1, 193.7 -2.03, 193.24 -6.2 M194.26 -4.46 C196.3 -3.87, 202.13 -2.91, 207.24 1.86 M193.01 -5 C196.85 -3.27, 200.74 -1.64, 206.61 1.06 M206.73 0.82 C206.73 0.82, 206.73 0.82, 206.73 0.82 M206.73 0.82 C206.73 0.82, 206.73 0.82, 206.73 0.82" stroke="#158bc2" stroke-width="1" fill="none"></path></g></g><mask></mask><g transform="translate(745.2377612918943 426.26118815271775) rotate(0 95.99999999999994 12)"><text x="96" y="17" font-family="Helvetica, Segoe UI Emoji" font-size="20px" fill="black" text-anchor="middle" style="white-space: pre;" direction="ltr">Get cached response</text></g><g transform="translate(952.1753200648516 145.23329829436125) rotate(0 95 23)"><text x="95" y="19" font-family="Helvetica, Segoe UI Emoji" font-size="20px" fill="black" text-anchor="middle" style="white-space: pre;" direction="ltr">Send response with </text><text x="95" y="42" font-family="Helvetica, Segoe UI Emoji" font-size="20px" fill="black" text-anchor="middle" style="white-space: pre;" direction="ltr">cache-control header</text></g></svg>