<svg version="1.1" xmlns="http://www.w3.org/2000/svg" viewBox="0 0 1298.009538261953 1278.1167984540275" width="2596.019076523906" height="2556.233596908055">
  <!-- svg-source:excalidraw -->
  
  <defs>
    <style class="style-fonts">
      @font-face {
        font-family: "Virgil";
        src: url("https://excalidraw.com/Virgil.woff2");
      }
      @font-face {
        font-family: "Cascadia";
        src: url("https://excalidraw.com/Cascadia.woff2");
      }
    </style>
  </defs>
  <rect x="0" y="0" width="1298.009538261953" height="1278.1167984540275" fill="#ffffff"></rect><g stroke-linecap="round"><g transform="translate(285.8780323260252 130.64198916701753) rotate(0 110.8333058225395 0.5393791432142052)"><path d="M0.07 -0.62 C37.39 -0.7, 185.82 -0.04, 223.02 0.05 M-1.35 1.67 C35.95 1.75, 185.06 1.69, 222.44 1.62" stroke="#596979" stroke-width="1" fill="none"></path></g><g transform="translate(285.8780323260252 130.64198916701753) rotate(0 110.8333058225395 0.5393791432142052)"><path d="M221.51 0.1 L210.79 7.96 L209.24 -3.64 L224.41 0.33" stroke="none" stroke-width="0" fill="#596979" fill-rule="evenodd"></path><path d="M221.67 2.51 C219.45 4.22, 216.21 3.08, 207.51 7.79 M222.76 1.91 C217.3 4.49, 212.86 6.52, 209.34 7.83 M208.51 8.95 C208.95 3.2, 208.02 -1.57, 209.64 -4.47 M208.31 8.57 C208.39 3.79, 208.54 -0.65, 208.45 -4.89 M207.56 -4.1 C212.98 -2.29, 215.77 -1.06, 222.85 1.63 M209.33 -4.94 C212.37 -3.76, 215.3 -2.07, 222.25 1.82 M222.44 1.62 C222.44 1.62, 222.44 1.62, 222.44 1.62 M222.44 1.62 C222.44 1.62, 222.44 1.62, 222.44 1.62" stroke="#596979" stroke-width="1" fill="none"></path></g></g><mask></mask><g transform="translate(332.2943221299227 103.35205742250014) rotate(0 60.50000000000003 11.5)"><text x="60.5" y="19" font-family="Helvetica, Segoe UI Emoji" font-size="20px" fill="black" text-anchor="middle" style="white-space: pre;" direction="ltr">Send request</text></g><g stroke-linecap="round"><g transform="translate(513.445438369075 153.8893788683008) rotate(0 386.02576431529917 0.6174061754811646)"><path d="M-1.14 -1.08 C127.57 -0.68, 644.09 1.71, 773.19 2.32 M0.46 0.97 C128.92 1.02, 643.45 0.61, 772.17 0.56" stroke="#596979" stroke-width="1" fill="none"></path></g><g transform="translate(513.445438369075 153.8893788683008) rotate(0 386.02576431529917 0.6174061754811646)"><path d="M774.14 -0.73 L757.69 5.24 L758.54 -5.79 L773.43 -0.94" stroke="none" stroke-width="0" fill="#596979" fill-rule="evenodd"></path><path d="M770.82 0.39 C767.93 3.01, 763.08 5.85, 759.17 6.35 M772.66 0.42 C767.86 3.13, 762.67 5.04, 759.17 6.99 M759.38 7.15 C758.87 3.1, 759.42 -2.02, 759.78 -6.68 M758.19 6.73 C758.15 2.97, 758.49 -0.57, 758.83 -5.28 M758.98 -5.75 C763.02 -4.47, 769.88 -0.25, 771.72 0.55 M758.38 -5.56 C762.17 -3.78, 764 -2.44, 772.92 0 M772.17 0.56 C772.17 0.56, 772.17 0.56, 772.17 0.56 M772.17 0.56 C772.17 0.56, 772.17 0.56, 772.17 0.56" stroke="#596979" stroke-width="1" fill="none"></path></g></g><mask></mask><g transform="translate(550.0171437624795 125.57444306370667) rotate(0 74 11.5)"><text x="74" y="19" font-family="Helvetica, Segoe UI Emoji" font-size="20px" fill="black" text-anchor="middle" style="white-space: pre;" direction="ltr">Forward request</text></g><g stroke-linecap="round"><g transform="translate(1280.3447090090085 212.24328386405205) rotate(0 -385.85360567821243 -1.044693191211195)"><path d="M-0.14 0.7 C-128.4 0.69, -642.33 -0.77, -770.7 -1.16 M-1.67 0.03 C-129.98 -0.22, -643.37 -2.17, -771.57 -2.79" stroke="#596979" stroke-width="1" fill="none"></path></g><g transform="translate(1280.3447090090085 212.24328386405205) rotate(0 -385.85360567821243 -1.044693191211195)"><path d="M-772.46 -4.46 L-757.98 -9.09 L-756.74 2.11 L-772.54 -1.06" stroke="none" stroke-width="0" fill="#596979" fill-rule="evenodd"></path><path d="M-770.69 -2.6 C-767.56 -3.43, -765.34 -5.91, -756.96 -8.76 M-770.93 -2.59 C-766.65 -5.06, -761.97 -6.86, -757.88 -9.54 M-757.74 -8.96 C-757.12 -6.12, -756.69 -1.9, -758.33 3.01 M-758.43 -9.54 C-758.18 -7.01, -757.79 -3.36, -757.59 3.99 M-758.55 2.66 C-761.47 2.31, -768.06 -0.93, -772.75 -4.1 M-757.36 4.09 C-761.56 2.63, -763.31 0.22, -771.9 -3.53 M-771.57 -2.79 C-771.57 -2.79, -771.57 -2.79, -771.57 -2.79 M-771.57 -2.79 C-771.57 -2.79, -771.57 -2.79, -771.57 -2.79" stroke="#596979" stroke-width="1" fill="none"></path></g></g><mask></mask><g transform="translate(1097.8137229278414 179.1399368433449) rotate(0 68.5 11.5)"><text x="68.5" y="19" font-family="Helvetica, Segoe UI Emoji" font-size="20px" fill="black" text-anchor="middle" style="white-space: pre;" direction="ltr">Send response</text></g><g stroke-linecap="round"><g transform="translate(512.5887661665681 290.5210054380766) rotate(0 146.0617981864237 0.8913860802019826)"><path d="M0.15 0.93 C49.07 1.11, 244.64 1.63, 293.35 1.83 M-1.23 0.37 C47.58 0.13, 243.9 -0.02, 292.67 -0.05" stroke="#596979" stroke-width="1" fill="none"></path></g><g transform="translate(512.5887661665681 290.5210054380766) rotate(0 146.0617981864237 0.8913860802019826)"><path d="M292.64 -0.06 L280.34 4.81 L278.1 -4.64 L294.18 -1.34" stroke="none" stroke-width="0" fill="#596979" fill-rule="evenodd"></path><path d="M293.83 0.59 C289.38 1.24, 285.86 3.94, 279.57 7.27 M293.1 -0.25 C289.49 1.85, 285.16 3.09, 279.22 6.77 M279.84 5.21 C280.26 1.35, 278.72 -2.37, 277.88 -7.16 M278.94 5.76 C279.43 3.35, 279.59 -0.19, 279.41 -6.2 M280.41 -5.41 C282.69 -4.4, 286.06 -3.78, 291.53 -0.44 M278.53 -5.95 C284.32 -4.95, 287.7 -3.05, 292.31 0.22 M292.67 -0.05 C292.67 -0.05, 292.67 -0.05, 292.67 -0.05 M292.67 -0.05 C292.67 -0.05, 292.67 -0.05, 292.67 -0.05" stroke="#596979" stroke-width="1" fill="none"></path></g></g><mask></mask><g stroke-linecap="round"><g transform="translate(512.9847688364825 247.65629562754293) rotate(0 -114.65659047472252 1.0305525676211573)"><path d="M0.93 0.51 C-37.45 0.65, -191.18 0.83, -229.54 1.03 M-0.05 -0.27 C-38.6 0.03, -191.98 1.76, -230.24 2.33" stroke="#596979" stroke-width="1" fill="none"></path></g><g transform="translate(512.9847688364825 247.65629562754293) rotate(0 -114.65659047472252 1.0305525676211573)"><path d="M-230.26 3.59 L-218.23 -5.15 L-214.83 10 L-231.53 2.2" stroke="none" stroke-width="0" fill="#596979" fill-rule="evenodd"></path><path d="M-229.61 2.93 C-225.96 0.88, -220.25 -1.96, -215.76 -4.47 M-230.44 2.92 C-224.97 -0.19, -220.31 -2.63, -216.26 -4.04 M-217.82 -2.97 C-217.57 -0.5, -217.21 2.65, -217.35 8.13 M-217.27 -3.92 C-216.3 -0.94, -216.36 1.81, -216.39 8.51 M-215.6 8.04 C-220.14 5.82, -225.03 4.23, -230.63 2.75 M-216.14 9.24 C-222.43 5.69, -227.88 3.29, -229.97 2.95 M-230.24 2.33 C-230.24 2.33, -230.24 2.33, -230.24 2.33 M-230.24 2.33 C-230.24 2.33, -230.24 2.33, -230.24 2.33" stroke="#596979" stroke-width="1" fill="none"></path></g></g><mask></mask><g transform="translate(319.22330099821085 220.20900687419362) rotate(0 75.00000000000003 11.5)"><text x="75" y="19" font-family="Helvetica, Segoe UI Emoji" font-size="20px" fill="black" text-anchor="middle" style="white-space: pre;" direction="ltr">Return response</text></g><g transform="translate(524.3336037170548 257.6630317434294) rotate(0 119.5 11.5)"><text x="119.5" y="19" font-family="Helvetica, Segoe UI Emoji" font-size="20px" fill="black" text-anchor="middle" style="white-space: pre;" direction="ltr">Request response caching</text></g><g stroke-linecap="round"><g transform="translate(286.2020757966505 423.7159994957965) rotate(0 113.15542054663302 1.5147539837616932)"><path d="M-0.45 0.79 C37.26 1.19, 188.8 2.63, 226.76 2.87 M1.52 0.16 C39.05 0.14, 188.37 0.4, 225.94 0.95" stroke="#158bc2" stroke-width="1" fill="none"></path></g><g transform="translate(286.2020757966505 423.7159994957965) rotate(0 113.15542054663302 1.5147539837616932)"><path d="M224.97 2.69 L213.8 5.9 L212.26 -3.68 L227.04 -0.06" stroke="none" stroke-width="0" fill="#158bc2" fill-rule="evenodd"></path><path d="M226.93 1.27 C221.78 4.01, 216.34 6.46, 212.71 8.05 M226.01 0.49 C222.41 3.14, 218.69 4.5, 212.37 7.64 M211.97 6.6 C211.01 3.69, 211.85 0.79, 211.45 -5.77 M212.71 7.58 C212.61 4.65, 212.3 1.53, 211.99 -4.92 M211.21 -6.79 C216.16 -3.53, 222.66 0.49, 226.9 -0.13 M212.06 -6.22 C216.92 -2.82, 222.73 -0.76, 226.1 1.11 M225.94 0.95 C225.94 0.95, 225.94 0.95, 225.94 0.95 M225.94 0.95 C225.94 0.95, 225.94 0.95, 225.94 0.95" stroke="#158bc2" stroke-width="1" fill="none"></path></g></g><mask></mask><g transform="translate(333.23352926836077 395.1221189534242) rotate(0 60.49999999999997 11.5)"><text x="60.5" y="19" font-family="Helvetica, Segoe UI Emoji" font-size="20px" fill="black" text-anchor="middle" style="white-space: pre;" direction="ltr">Send request</text></g><g stroke-linecap="round"><g transform="translate(512.9912669085054 477.0992584563555) rotate(0 147.05536098019775 -0.5753436748218519)"><path d="M0.25 0.39 C49.52 0, 245.99 -1.31, 295.19 -1.54 M-1.08 -0.45 C48.14 -0.73, 245.27 -0.28, 294.65 -0.12" stroke="#158bc2" stroke-width="1" fill="none"></path></g><g transform="translate(512.9912669085054 477.0992584563555) rotate(0 147.05536098019775 -0.5753436748218519)"><path d="M296.15 -1.42 L280.91 7.99 L282.17 -7.51 L293.42 -0.18" stroke="none" stroke-width="0" fill="#158bc2" fill-rule="evenodd"></path><path d="M295.13 0.85 C290.83 2.84, 287.95 4.08, 280.63 7.35 M294.79 0.35 C290.57 1.87, 286.26 4.16, 280.39 6.9 M279.85 5.4 C280.71 2.31, 280.15 0.1, 279.98 -5.98 M281.38 6.35 C280.98 1.17, 280.58 -2.81, 281.48 -6.69 M279.93 -6.89 C285.49 -3.19, 290.1 -3.65, 295.49 1.36 M280.71 -6.23 C284.72 -4.9, 287.32 -3.33, 294.38 0.23 M294.65 -0.12 C294.65 -0.12, 294.65 -0.12, 294.65 -0.12 M294.65 -0.12 C294.65 -0.12, 294.65 -0.12, 294.65 -0.12" stroke="#158bc2" stroke-width="1" fill="none"></path></g></g><mask></mask><g transform="translate(556.4162207284312 437.54106333790514) rotate(0 96 11.5)"><text x="96" y="19" font-family="Helvetica, Segoe UI Emoji" font-size="20px" fill="black" text-anchor="middle" style="white-space: pre;" direction="ltr">Get cached response</text></g><g stroke-linecap="round"><g transform="translate(803.7799736547819 571.3541610448428) rotate(0 -143.86283266672564 -0.6117330058123116)"><path d="M0.78 -0.23 C-47.28 -0.21, -239.89 0.49, -288.09 0.5 M-0.28 -1.4 C-48.42 -1.79, -240.41 -1.85, -288.5 -1.45" stroke="#158bc2" stroke-width="1" fill="none"></path></g><g transform="translate(803.7799736547819 571.3541610448428) rotate(0 -143.86283266672564 -0.6117330058123116)"><path d="M-288.63 0.36 L-273.83 -8.84 L-276.11 4.79 L-286.62 -1.15" stroke="none" stroke-width="0" fill="#158bc2" fill-rule="evenodd"></path><path d="M-288.79 -0.17 C-283.76 -2.73, -280.22 -4.47, -274.77 -7.7 M-288.36 -1.33 C-285.22 -2.6, -282.71 -3.86, -275.46 -8.03 M-275.29 -8.81 C-275.98 -4.92, -276.11 -0.9, -273.91 5.67 M-274.92 -8.07 C-275.24 -2.7, -274.42 1.12, -274.89 4.35 M-274.47 6.12 C-276.77 2.38, -279.79 3.61, -289.62 -2.12 M-274.27 4.88 C-277.44 3.78, -280.63 2.71, -288.77 -2.2 M-288.5 -1.45 C-288.5 -1.45, -288.5 -1.45, -288.5 -1.45 M-288.5 -1.45 C-288.5 -1.45, -288.5 -1.45, -288.5 -1.45" stroke="#158bc2" stroke-width="1" fill="none"></path></g></g><mask></mask><g transform="translate(546.3266128561949 534.0855129317342) rotate(0 110 11.5)"><text x="110" y="19" font-family="Helvetica, Segoe UI Emoji" font-size="20px" fill="black" text-anchor="middle" style="white-space: pre;" direction="ltr">Return cached response</text></g><g stroke-linecap="round"><g transform="translate(508.9067691367977 614.4972415225666) rotate(0 -108.71912263049978 -0.22625761135986977)"><path d="M0.93 0.13 C-35.43 0.06, -181.1 -0.85, -217.48 -0.75 M-0.04 -0.85 C-36.61 -0.75, -182.04 0.45, -218.37 0.4" stroke="#158bc2" stroke-width="1" fill="none"></path></g><g transform="translate(508.9067691367977 614.4972415225666) rotate(0 -108.71912263049978 -0.22625761135986977)"><path d="M-216.49 0.69 L-203.17 -6.2 L-204.47 5.16 L-216.44 -0.69" stroke="none" stroke-width="0" fill="#158bc2" fill-rule="evenodd"></path><path d="M-218.21 0.53 C-214.44 -1.71, -207.72 -4, -204.56 -5.87 M-218.91 0.2 C-213.79 -2.74, -209.02 -4.55, -205.38 -6.55 M-203.83 -5.17 C-204.13 -1.81, -204.54 1.04, -205.22 5.89 M-204.81 -6.5 C-205.25 -1.55, -204.85 4.04, -204.21 7.09 M-205.87 6.02 C-209.36 4.67, -210.45 5.2, -218.31 0.72 M-205.02 5.93 C-209.23 5.2, -213.34 2.64, -218.72 -0.17 M-218.37 0.4 C-218.37 0.4, -218.37 0.4, -218.37 0.4 M-218.37 0.4 C-218.37 0.4, -218.37 0.4, -218.37 0.4" stroke="#158bc2" stroke-width="1" fill="none"></path></g></g><mask></mask><g transform="translate(292.2432314705925 579.8781868128522) rotate(0 110 11.5)"><text x="110" y="19" font-family="Helvetica, Segoe UI Emoji" font-size="20px" fill="black" text-anchor="middle" style="white-space: pre;" direction="ltr">Return cached response</text></g><g stroke-linecap="round"><g transform="translate(288.07063973014647 742.1638154815787) rotate(0 110.20369746379757 -0.6274576920902746)"><path d="M-0.6 -0.12 C36.35 0.02, 183.87 0.15, 221.01 0.35 M1.28 -1.23 C38.14 -1.42, 183.24 -1.67, 220.04 -1.59" stroke="#596979" stroke-width="1" fill="none"></path></g><g transform="translate(288.07063973014647 742.1638154815787) rotate(0 110.20369746379757 -0.6274576920902746)"><path d="M218.18 -1.87 L205.8 3.19 L206.51 -9.65 L221.29 -1.85" stroke="none" stroke-width="0" fill="#596979" fill-rule="evenodd"></path><path d="M219.89 -1.64 C217.21 1.32, 214.86 -0.11, 205.06 6.21 M219.89 -1.17 C214.17 1.21, 208.8 3.48, 207.1 4.18 M206.6 5.1 C206.89 1.13, 206.51 -2, 205.67 -8.08 M206.2 4.14 C206.01 0.41, 206.67 -4.75, 206.95 -8.17 M205.81 -8.87 C212 -5.29, 213.88 -4.89, 218.77 -1.89 M205.95 -7.23 C211.3 -5.12, 217.3 -3.09, 220.11 -2.09 M220.04 -1.59 C220.04 -1.59, 220.04 -1.59, 220.04 -1.59 M220.04 -1.59 C220.04 -1.59, 220.04 -1.59, 220.04 -1.59" stroke="#596979" stroke-width="1" fill="none"></path></g></g><mask></mask><g transform="translate(335.98079598014647 714.6428578660343) rotate(0 60.5 11.5)"><text x="60.5" y="19" font-family="Helvetica, Segoe UI Emoji" font-size="20px" fill="black" text-anchor="middle" style="white-space: pre;" direction="ltr">Send request</text></g><g stroke-linecap="round"><g transform="translate(516.4857295347529 780.5244036277059) rotate(0 144.45111157671818 -1.1584903088210012)"><path d="M0.66 -0.21 C48.9 -0.51, 241.24 -1.92, 289.35 -2.1 M-0.45 -1.37 C47.68 -1.51, 240.46 -1.25, 288.67 -1.03" stroke="#596979" stroke-width="1" fill="none"></path></g><g transform="translate(516.4857295347529 780.5244036277059) rotate(0 144.45111157671818 -1.1584903088210012)"><path d="M290.19 -0.12 L273.89 7.23 L274.47 -8.85 L288.41 -0.54" stroke="none" stroke-width="0" fill="#596979" fill-rule="evenodd"></path><path d="M288.4 -0.4 C283.54 1.51, 280.52 2.79, 275.25 6.05 M288.3 -1.77 C285.17 0.41, 283.81 1.63, 275.36 4.68 M276.22 5.3 C275.51 0.78, 275.36 -2.24, 275.51 -8.29 M274.62 4.65 C274.93 1.86, 274.63 -2.28, 274.94 -7.55 M275.78 -8.29 C280.62 -6.16, 286.6 -1.23, 288.15 0.34 M274.37 -6.88 C280.31 -5.63, 285.39 -2.7, 288.82 -1.26 M288.67 -1.03 C288.67 -1.03, 288.67 -1.03, 288.67 -1.03 M288.67 -1.03 C288.67 -1.03, 288.67 -1.03, 288.67 -1.03" stroke="#596979" stroke-width="1" fill="none"></path></g></g><mask></mask><g transform="translate(558.3430473653478 744.3850525366456) rotate(0 96 11.5)"><text x="96" y="19" font-family="Helvetica, Segoe UI Emoji" font-size="20px" fill="black" text-anchor="middle" style="white-space: pre;" direction="ltr">Get cached response</text></g><g stroke-linecap="round"><g transform="translate(1286.6335823814566 880.6792024787014) rotate(0 -383.0546977213388 -1.1730398029285425)"><path d="M0.91 -1.11 C-126.9 -1.32, -639.02 -1.25, -767.02 -1.11" stroke="#0fac7c" stroke-width="1.5" fill="none" stroke-dasharray="1.5 7"></path></g><g transform="translate(1286.6335823814566 880.6792024787014) rotate(0 -383.0546977213388 -1.1730398029285425)"><path d="M-765.99 0.58 L-753.57 -7.95 L-752.18 5.47 L-767.63 -3.05" stroke="none" stroke-width="0" fill="#0fac7c" fill-rule="evenodd"></path><path d="M-768.4 -1.37 C-764.2 -3.37, -759.22 -6.33, -752.14 -6.27 M-752.92 -8.01 C-752.79 -3.64, -754.61 1.94, -752.44 5.64 M-753.7 5.18 C-757.88 2.21, -763.96 0.62, -767.58 -1.77 M-767.02 -1.11 C-767.02 -1.11, -767.02 -1.11, -767.02 -1.11" stroke="#0fac7c" stroke-width="1.5" fill="none"></path></g></g><mask></mask><g transform="translate(1081.425160533685 844.9332465847092) rotate(0 98.5 11.5)"><text x="98.5" y="19" font-family="Helvetica, Segoe UI Emoji" font-size="20px" fill="black" text-anchor="middle" style="white-space: pre;" direction="ltr">If new, send response</text></g><g stroke-linecap="round"><g transform="translate(507.4450293625338 1250.4287653892147) rotate(0 -108.312036162282 -0.8077771056723577)"><path d="M-0.97 -0.14 C-36.96 0.06, -180.5 0.09, -216.66 0.2 M0.71 -1.27 C-35.32 -1.36, -181.31 -1.76, -217.34 -1.82" stroke="#bf0a17" stroke-width="1" fill="none"></path></g><g transform="translate(507.4450293625338 1250.4287653892147) rotate(0 -108.312036162282 -0.8077771056723577)"><path d="M-218.75 -2.19 L-204.64 -10.02 L-202.77 4.85 L-217.85 -0.44" stroke="none" stroke-width="0" fill="#bf0a17" fill-rule="evenodd"></path><path d="M-217.52 -1.17 C-213.78 -4.18, -210.14 -4.89, -203.72 -9.52 M-216.91 -2.56 C-213.32 -3.6, -207.46 -6.27, -203.43 -8.16 M-202.64 -7.87 C-204.81 -2.04, -204.68 2.07, -204.55 4.93 M-204.13 -7.7 C-204.39 -3.96, -203.26 -0.73, -203.21 4.74 M-202.52 4.72 C-207.29 4.57, -210.09 1.55, -218.65 -1.86 M-203.75 4.65 C-207.49 2.64, -211.15 1.37, -217.25 -2.51 M-217.34 -1.82 C-217.34 -1.82, -217.34 -1.82, -217.34 -1.82 M-217.34 -1.82 C-217.34 -1.82, -217.34 -1.82, -217.34 -1.82" stroke="#bf0a17" stroke-width="1" fill="none"></path></g></g><mask></mask><g transform="translate(289.10467642579573 1213.6062551181726) rotate(0 109.99999999999997 11.5)"><text x="110" y="19" font-family="Helvetica, Segoe UI Emoji" font-size="20px" fill="black" text-anchor="middle" style="white-space: pre;" direction="ltr">Return cached response</text></g><g stroke-linecap="round" transform="translate(10 97.89056735359486) rotate(0 14.569823253966469 14.569823253966433)"><path d="M8.47 0.65 C11.2 -0.57, 16.01 0.24, 19.05 1.12 C22.09 2.01, 25.09 3.47, 26.7 5.95 C28.32 8.43, 29.01 12.93, 28.72 16.01 C28.43 19.09, 27.16 22.16, 24.96 24.45 C22.75 26.73, 18.53 29.4, 15.49 29.72 C12.45 30.04, 9.21 28.19, 6.7 26.37 C4.19 24.56, 1.38 21.96, 0.45 18.82 C-0.49 15.68, -0.9 10.81, 1.06 7.55 C3.03 4.29, 9.79 0.56, 12.24 -0.71 C14.7 -1.99, 15.7 -0.47, 15.79 -0.11 M18.54 -0.58 C21.44 -0.14, 25.66 4, 27.29 6.58 C28.91 9.16, 28.39 12.18, 28.29 14.93 C28.19 17.67, 28.42 20.68, 26.7 23.06 C24.97 25.44, 21.36 28.73, 17.97 29.21 C14.57 29.68, 9.13 27.83, 6.33 25.91 C3.54 24, 2.04 20.31, 1.19 17.73 C0.35 15.16, 0.36 13.07, 1.27 10.46 C2.17 7.85, 3.99 3.78, 6.61 2.07 C9.24 0.37, 15.23 0.7, 17.01 0.24 C18.79 -0.21, 17.22 -1.08, 17.29 -0.65" stroke="none" stroke-width="0" fill="#596979"></path><path d="M19.83 1.74 C22.65 2.59, 24.98 5.55, 26.38 8.08 C27.79 10.62, 28.46 14.02, 28.24 16.96 C28.01 19.9, 27.41 23.59, 25.02 25.72 C22.64 27.85, 17.14 29.82, 13.93 29.75 C10.72 29.67, 8.08 27.4, 5.76 25.27 C3.44 23.14, 0.64 19.82, 0.01 16.97 C-0.63 14.13, 0.51 10.71, 1.93 8.19 C3.36 5.68, 5.31 2.94, 8.56 1.88 C11.81 0.82, 19.24 1.7, 21.41 1.85 C23.59 2, 21.87 2.67, 21.61 2.78 M7.98 1.51 C10.87 -0.26, 15.98 -0.59, 18.91 0.19 C21.84 0.96, 23.68 3.74, 25.55 6.16 C27.43 8.58, 30.45 11.5, 30.17 14.71 C29.9 17.91, 26.31 23.21, 23.91 25.4 C21.51 27.59, 18.74 27.68, 15.77 27.85 C12.81 28.01, 8.58 27.9, 6.13 26.4 C3.68 24.9, 2.16 21.64, 1.07 18.86 C-0.02 16.07, -1.65 12.67, -0.39 9.7 C0.88 6.74, 7.32 2.21, 8.66 1.06 C10 -0.09, 7.52 2.32, 7.65 2.8" stroke="#596979" stroke-width="1" fill="none"></path></g><g transform="translate(19.67370913905461 100.71093708938292) rotate(0 6.5 11.5)"><text x="0" y="19" font-family="Helvetica, Segoe UI Emoji" font-size="20px" fill="white" text-anchor="start" style="white-space: pre;" direction="ltr">1</text></g><g transform="translate(70.33943154502492 103.15070640101703) rotate(0 60.5 11.5)"><text x="60.5" y="19" font-family="Helvetica, Segoe UI Emoji" font-size="20px" fill="black" text-anchor="middle" style="white-space: pre;" direction="ltr">Initial request</text></g><g stroke-linecap="round" transform="translate(10 413.95542200300133) rotate(0 14.569823253966469 14.569823253966433)"><path d="M12.43 0.18 C15.3 -0.64, 18.53 -0.04, 21.12 1.58 C23.7 3.2, 26.86 6.91, 27.93 9.9 C29.01 12.9, 28.45 16.55, 27.55 19.56 C26.66 22.58, 25.09 26.42, 22.55 27.99 C20 29.57, 15.31 29.74, 12.29 29 C9.26 28.25, 6.53 25.82, 4.41 23.51 C2.29 21.21, -0.1 18.03, -0.45 15.16 C-0.79 12.29, 0.1 8.67, 2.35 6.28 C4.61 3.88, 11.01 1.72, 13.09 0.8 C15.16 -0.13, 14.55 0.5, 14.79 0.74 M19.37 -0.3 C22.38 0.35, 24.92 4.76, 26.31 7.72 C27.7 10.69, 27.94 14.68, 27.72 17.49 C27.49 20.3, 27.12 22.55, 24.96 24.57 C22.8 26.6, 18.09 29.28, 14.74 29.61 C11.4 29.95, 7.01 28.68, 4.87 26.57 C2.74 24.46, 2.43 20.13, 1.93 16.96 C1.43 13.79, 0.77 10.23, 1.86 7.56 C2.95 4.89, 5.89 2.1, 8.45 0.93 C11.01 -0.23, 15.37 0.37, 17.2 0.57 C19.03 0.77, 19.29 1.87, 19.42 2.15" stroke="none" stroke-width="0" fill="#158bc2"></path><path d="M18.87 -0.33 C21.65 0.44, 24.57 4.3, 26.3 6.78 C28.02 9.26, 29.32 11.52, 29.23 14.54 C29.15 17.57, 28.05 22.57, 25.8 24.95 C23.54 27.32, 18.96 28.47, 15.7 28.79 C12.45 29.1, 8.66 28.65, 6.27 26.84 C3.88 25.03, 2.05 20.81, 1.36 17.94 C0.66 15.07, 0.91 12.36, 2.11 9.62 C3.3 6.88, 5.42 2.94, 8.53 1.49 C11.65 0.04, 18.56 0.93, 20.82 0.94 C23.07 0.95, 22.34 1.17, 22.05 1.56 M15.42 -0.5 C18.51 -0.52, 22.99 3.1, 25.19 5.11 C27.39 7.13, 28.21 8.77, 28.63 11.57 C29.05 14.37, 29.57 19.2, 27.71 21.93 C25.84 24.65, 20.71 26.84, 17.45 27.89 C14.2 28.95, 10.86 29.66, 8.17 28.26 C5.48 26.87, 2.51 22.23, 1.32 19.51 C0.14 16.79, 0.39 14.78, 1.07 11.95 C1.74 9.12, 2.81 4.36, 5.36 2.53 C7.92 0.71, 14.57 1.16, 16.42 1.02 C18.28 0.88, 16.62 1.81, 16.49 1.69" stroke="#158bc2" stroke-width="1" fill="none"></path></g><g transform="translate(19.956158262069437 416.77579173878985) rotate(0 6.5 11.5)"><text x="0" y="19" font-family="Helvetica, Segoe UI Emoji" font-size="20px" fill="white" text-anchor="start" style="white-space: pre;" direction="ltr">2</text></g><g transform="translate(59.58779749724556 408.65484747070604) rotate(0 75 23)"><text x="75" y="19" font-family="Helvetica, Segoe UI Emoji" font-size="20px" fill="black" text-anchor="middle" style="white-space: pre;" direction="ltr">Request within</text><text x="75" y="42" font-family="Helvetica, Segoe UI Emoji" font-size="20px" fill="black" text-anchor="middle" style="white-space: pre;" direction="ltr">cache timeframe</text></g><g transform="translate(563.7215456073817 1119.1794812748667) rotate(0 96 11.5)"><text x="96" y="19" font-family="Helvetica, Segoe UI Emoji" font-size="20px" fill="black" text-anchor="middle" style="white-space: pre;" direction="ltr">Get cached response</text></g><g stroke-linecap="round" transform="translate(10 713.3139808743549) rotate(0 14.569823253966469 14.569823253966433)"><path d="M13.43 0.84 C16.24 0.65, 20.87 1.68, 23.38 3.56 C25.9 5.45, 27.83 9.12, 28.53 12.17 C29.23 15.21, 28.85 19.28, 27.57 21.84 C26.29 24.4, 23.61 26.29, 20.84 27.54 C18.07 28.78, 14.08 30.08, 10.94 29.3 C7.81 28.53, 3.77 25.6, 2.03 22.88 C0.3 20.16, 0.17 16.28, 0.53 12.98 C0.89 9.68, 1.77 5.18, 4.2 3.09 C6.64 1.01, 13.44 0.84, 15.12 0.47 C16.81 0.1, 14.51 0.66, 14.31 0.85 M20.49 0.86 C23.27 2.17, 25.72 5.35, 27.24 8.42 C28.77 11.49, 30.21 16.28, 29.62 19.27 C29.03 22.26, 26.41 24.97, 23.7 26.36 C21 27.75, 16.54 27.66, 13.41 27.61 C10.27 27.56, 7.1 27.87, 4.88 26.06 C2.67 24.24, 0.5 20.23, 0.13 16.72 C-0.24 13.21, 1.13 7.78, 2.67 4.98 C4.21 2.19, 6.21 0.51, 9.35 -0.05 C12.5 -0.6, 19.7 1.6, 21.56 1.66 C23.41 1.72, 20.85 0.26, 20.49 0.33" stroke="none" stroke-width="0" fill="#596979"></path><path d="M14.04 0.28 C17.04 0.13, 21.97 1.58, 24.41 3.76 C26.84 5.94, 28.36 10.33, 28.64 13.39 C28.91 16.45, 27.63 19.77, 26.06 22.12 C24.48 24.47, 21.84 26.36, 19.19 27.47 C16.54 28.58, 13.05 29.74, 10.17 28.78 C7.3 27.81, 3.49 24.62, 1.94 21.69 C0.39 18.77, 0.19 14.27, 0.9 11.23 C1.6 8.19, 3.31 5.15, 6.18 3.46 C9.05 1.76, 15.34 1.25, 18.11 1.07 C20.88 0.88, 22.6 2.31, 22.79 2.33 M10.62 0.03 C13.64 -0.75, 18.04 1.11, 20.61 2.35 C23.17 3.58, 24.51 4.88, 26 7.42 C27.5 9.97, 29.85 14.65, 29.59 17.62 C29.33 20.59, 27.05 23.52, 24.44 25.24 C21.82 26.97, 16.95 27.83, 13.9 27.97 C10.85 28.11, 8.66 28.18, 6.14 26.08 C3.63 23.98, -0.61 18.77, -1.22 15.38 C-1.83 11.99, 0.84 8.4, 2.5 5.74 C4.16 3.09, 7.67 0.02, 8.75 -0.54 C9.84 -1.1, 8.87 1.69, 9.02 2.37" stroke="#596979" stroke-width="1" fill="none"></path></g><g transform="translate(19.956158262069494 716.1343506101434) rotate(0 6.5 11.5)"><text x="0" y="19" font-family="Helvetica, Segoe UI Emoji" font-size="20px" fill="white" text-anchor="start" style="white-space: pre;" direction="ltr">3</text></g><g transform="translate(61.62354142901728 708.0133655502223) rotate(0 75 23)"><text x="75" y="19" font-family="Helvetica, Segoe UI Emoji" font-size="20px" fill="black" text-anchor="middle" style="white-space: pre;" direction="ltr">Request outside</text><text x="75" y="42" font-family="Helvetica, Segoe UI Emoji" font-size="20px" fill="black" text-anchor="middle" style="white-space: pre;" direction="ltr">cache timeframe</text></g><g stroke-linecap="round"><g transform="translate(510.16935343453997 923.7971161445066) rotate(0 -109.97554391304175 0.2373420012288534)"><path d="M-1.01 0.81 C-37.33 0.94, -182.52 -0.03, -218.94 -0.35" stroke="#0fac7c" stroke-width="1.5" fill="none" stroke-dasharray="1.5 7"></path></g><g transform="translate(510.16935343453997 923.7971161445066) rotate(0 -109.97554391304175 0.2373420012288534)"><path d="M-218.25 -0.14 L-205.54 -4.7 L-206.68 6.14 L-219.65 -0.18" stroke="none" stroke-width="0" fill="#0fac7c" fill-rule="evenodd"></path><path d="M-217.92 0.05 C-215.75 -1.89, -213.77 -2.22, -204.47 -7.36 M-205.7 -7.66 C-205.71 -0.86, -204.34 4.1, -205.22 6.34 M-206.34 5.68 C-208.74 5.05, -212.22 3.84, -217.76 0.82 M-218.94 -0.35 C-218.94 -0.35, -218.94 -0.35, -218.94 -0.35" stroke="#0fac7c" stroke-width="1.5" fill="none"></path></g></g><mask></mask><g transform="translate(305.454275662858 883.2163051398607) rotate(0 96 11.5)"><text x="96" y="19" font-family="Helvetica, Segoe UI Emoji" font-size="20px" fill="black" text-anchor="middle" style="white-space: pre;" direction="ltr">Return new response</text></g><g stroke-linecap="round"><g transform="translate(514.3774948287919 962.1661385354469) rotate(0 144.2891026243596 1.035656085540495)"><path d="M-1.02 1.06 C47.36 1.31, 241.22 0.88, 289.6 0.94" stroke="#0fac7c" stroke-width="1.5" fill="none" stroke-dasharray="1.5 7"></path></g><g transform="translate(514.3774948287919 962.1661385354469) rotate(0 144.2891026243596 1.035656085540495)"><path d="M291.19 -0.72 L276.32 5.86 L276.8 -6.81 L289.66 2.03" stroke="none" stroke-width="0" fill="#0fac7c" fill-rule="evenodd"></path><path d="M290.92 0.6 C287.01 1.59, 284.26 3.21, 275.94 7.91 M276.44 6.16 C274.96 2.44, 275.95 -0.71, 275.56 -6.08 M276.87 -4.78 C279.13 -5.06, 282.25 -1.91, 289.43 -0.32 M289.6 0.94 C289.6 0.94, 289.6 0.94, 289.6 0.94" stroke="#0fac7c" stroke-width="1.5" fill="none"></path></g></g><mask></mask><g transform="translate(533.2850475567442 924.8838791290013) rotate(0 122 11.5)"><text x="122" y="19" font-family="Helvetica, Segoe UI Emoji" font-size="20px" fill="black" text-anchor="middle" style="white-space: pre;" direction="ltr">Request response caching </text></g><g stroke-linecap="round" transform="translate(16.2436750483527 866.3384398274793) rotate(0 14.569823253966469 14.569823253966433)"><path d="M12.06 0.47 C14.98 -0.08, 18.02 0.99, 20.76 2.5 C23.5 4.01, 27.07 6.79, 28.49 9.52 C29.9 12.25, 30.1 15.93, 29.26 18.86 C28.41 21.8, 26.14 25.4, 23.42 27.12 C20.69 28.84, 16.3 29.55, 12.91 29.19 C9.51 28.82, 5.27 27.37, 3.07 24.93 C0.86 22.48, -0.17 17.61, -0.34 14.52 C-0.51 11.42, -0.29 8.85, 2.04 6.37 C4.37 3.89, 11.46 0.77, 13.64 -0.35 C15.82 -1.47, 15 -0.52, 15.11 -0.37 M17.33 0.14 C20.2 0.58, 24.17 3.51, 26.22 6.3 C28.27 9.09, 30.12 13.55, 29.63 16.86 C29.15 20.18, 25.74 23.88, 23.31 26.17 C20.87 28.46, 17.75 30.59, 15.03 30.6 C12.31 30.62, 9.31 28.44, 6.98 26.27 C4.64 24.09, 2.03 20.4, 1.04 17.55 C0.05 14.71, -0.43 12.1, 1.04 9.22 C2.5 6.34, 6.86 1.56, 9.81 0.28 C12.77 -1.01, 17.47 1.54, 18.77 1.5 C20.07 1.47, 17.63 0.02, 17.61 0.05" stroke="none" stroke-width="0" fill="#0fac7c"></path><path d="M13.86 0.02 C16.82 -0.53, 21.49 0.34, 24.13 2.3 C26.78 4.25, 29.27 8.57, 29.72 11.76 C30.17 14.95, 28.34 18.77, 26.85 21.43 C25.35 24.09, 23.48 26.39, 20.76 27.71 C18.05 29.04, 13.57 30.34, 10.55 29.38 C7.54 28.42, 4.46 24.74, 2.68 21.96 C0.91 19.17, -0.43 15.66, -0.1 12.66 C0.24 9.66, 1.97 6, 4.69 3.96 C7.41 1.91, 14.02 0.9, 16.21 0.37 C18.4 -0.15, 17.92 0.44, 17.84 0.8 M8.95 2.09 C11.67 0.62, 16.33 -0.21, 19.33 0.31 C22.32 0.82, 25.06 2.49, 26.92 5.19 C28.79 7.89, 30.89 13.09, 30.53 16.53 C30.16 19.97, 27.03 23.73, 24.72 25.84 C22.41 27.95, 19.89 29.36, 16.68 29.19 C13.48 29.03, 8.37 26.58, 5.5 24.84 C2.64 23.1, 0.35 21.61, -0.49 18.75 C-1.33 15.89, -1.23 10.8, 0.47 7.69 C2.17 4.57, 8.49 1.13, 9.73 0.04 C10.98 -1.04, 7.76 0.77, 7.94 1.18" stroke="#0fac7c" stroke-width="1" fill="none"></path></g><g transform="translate(20.19983331042218 869.1588095632687) rotate(0 12 11.5)"><text x="0" y="19" font-family="Helvetica, Segoe UI Emoji" font-size="20px" fill="white" text-anchor="start" style="white-space: pre;" direction="ltr">3a</text></g><g stroke-linecap="round" transform="translate(16.21601848252577 1038.0450054257608) rotate(0 14.569823253966469 14.569823253966433)"><path d="M21.15 2.16 C23.69 3.43, 26.53 5.62, 27.6 8.5 C28.66 11.38, 28.49 16.52, 27.53 19.45 C26.57 22.37, 24.24 24.5, 21.82 26.04 C19.41 27.58, 16.18 29.02, 13.04 28.68 C9.91 28.33, 5.26 26.36, 3.02 23.97 C0.78 21.58, -0.5 17.32, -0.42 14.35 C-0.34 11.38, 1.67 8.42, 3.49 6.17 C5.3 3.93, 7.36 1.43, 10.48 0.85 C13.6 0.28, 20.01 2.29, 22.21 2.74 C24.41 3.19, 23.58 3.45, 23.68 3.55 M9.98 0.29 C13.02 -0.63, 18.02 1.22, 21.11 2.33 C24.2 3.43, 27.08 4.5, 28.51 6.93 C29.95 9.36, 30.54 13.74, 29.73 16.9 C28.92 20.07, 26.02 24.08, 23.65 25.93 C21.28 27.78, 18.55 27.89, 15.52 28.01 C12.49 28.13, 8.03 28.67, 5.46 26.63 C2.9 24.6, 0.49 18.99, 0.13 15.79 C-0.23 12.6, 1.56 9.93, 3.32 7.46 C5.07 5, 9.4 2.2, 10.65 1.02 C11.91 -0.17, 11.04 0.11, 10.85 0.35" stroke="none" stroke-width="0" fill="#bf0a17"></path><path d="M10.49 1 C13.34 0.03, 18 0.08, 20.8 1.24 C23.61 2.4, 26.03 4.99, 27.32 7.96 C28.62 10.94, 29.44 16.07, 28.57 19.09 C27.7 22.11, 24.6 24.39, 22.11 26.06 C19.62 27.74, 16.55 29.43, 13.63 29.14 C10.7 28.86, 6.69 26.69, 4.57 24.36 C2.45 22.04, 1.33 18.12, 0.91 15.2 C0.49 12.27, 0.02 9.22, 2.06 6.8 C4.1 4.39, 10.93 1.66, 13.17 0.71 C15.4 -0.24, 15.33 0.83, 15.47 1.11 M11.12 0.38 C13.91 -0.69, 18.09 0.96, 20.9 2.08 C23.72 3.2, 26.51 4.46, 28.01 7.12 C29.51 9.78, 30.72 15.16, 29.89 18.06 C29.06 20.95, 25.67 22.41, 23.04 24.48 C20.4 26.55, 17.02 30.42, 14.06 30.48 C11.1 30.54, 7.56 27.23, 5.27 24.83 C2.99 22.42, 1.07 19.19, 0.35 16.05 C-0.38 12.9, -0.72 8.45, 0.92 5.96 C2.56 3.47, 8.65 2.07, 10.21 1.1 C11.76 0.13, 10.36 -0.1, 10.23 0.12" stroke="#bf0a17" stroke-width="1" fill="none"></path></g><g transform="translate(20.172176744595248 1040.8653751615502) rotate(0 12 11.5)"><text x="0" y="19" font-family="Helvetica, Segoe UI Emoji" font-size="20px" fill="white" text-anchor="start" style="white-space: pre;" direction="ltr">3b</text></g><g transform="translate(67.30730386410647 866.251108685221) rotate(0 106 11.5)"><text x="106" y="19" font-family="Helvetica, Segoe UI Emoji" font-size="20px" fill="black" text-anchor="middle" style="white-space: pre;" direction="ltr">Response has changed</text></g><g transform="translate(53.83541946646531 1042.9941637750935) rotate(0 114.49999999999999 11.5)"><text x="114.5" y="19" font-family="Helvetica, Segoe UI Emoji" font-size="20px" fill="black" text-anchor="middle" style="white-space: pre;" direction="ltr">Response did not change</text></g><g transform="translate(259.9940959090078 12.290403075463473) rotate(0 26.5 11.5)"><text x="26.5" y="19" font-family="Helvetica, Segoe UI Emoji" font-size="20px" fill="black" text-anchor="middle" style="white-space: pre;" direction="ltr">Client</text></g><g stroke-linecap="round"><g transform="translate(288.5929769309548 41.38995834106572) rotate(0 -0.40215478522671333 606.8923629836834)"><path d="M-1.14 -0.34 C-1.23 201.89, 0.01 1012.05, 0.34 1214.13" stroke="black" stroke-width="1.5" fill="none" stroke-dasharray="8 9"></path></g></g><mask></mask><g transform="translate(469.3274068622038 10) rotate(0 40.5 11.5)"><text x="40.5" y="19" font-family="Helvetica, Segoe UI Emoji" font-size="20px" fill="black" text-anchor="middle" style="white-space: pre;" direction="ltr">Gateway</text></g><g stroke-linecap="round"><g transform="translate(511.09689807105815 40.83937599891078) rotate(0 -0.5724433463846594 608.8567359403669)"><path d="M0.5 0.91 C0.42 203.77, -0.94 1013.96, -1.64 1216.8" stroke="black" stroke-width="1.5" fill="none" stroke-dasharray="8 9"></path></g></g><mask></mask><g transform="translate(1035.680664435382 12.795235386280638) rotate(0 26.5 11.5)"><text x="26.5" y="19" font-family="Helvetica, Segoe UI Emoji" font-size="20px" fill="black" text-anchor="middle" style="white-space: pre;" direction="ltr">Redis</text></g><g stroke-linecap="round"><g transform="translate(1060.8002011616645 43.702552716582886) rotate(0 2.236053953784449 611.6646492772308)"><path d="M1.01 -1.08 C1.5 202.83, 2.94 1020.36, 3.47 1224.41" stroke="black" stroke-width="1.5" fill="none" stroke-dasharray="8 9"></path></g></g><mask></mask><g stroke-linecap="round"><g transform="translate(1289.0950080420703 43.243113582266005) rotate(0 -1.2719385574461057 609.2165219736106)"><path d="M-1.09 0.09 C-1.5 203.33, -1.41 1015.18, -1.46 1218.34" stroke="black" stroke-width="1.5" fill="none" stroke-dasharray="8 9"></path></g></g><mask></mask><g stroke-linecap="round"><g transform="translate(512.1861106896068 1156.9748590914924) rotate(0 147.2561926622999 -0.8254236302357185)"><path d="M1.04 -0.03 C50.02 -0.15, 245.68 -1.56, 294.38 -1.62 M0.13 -1.09 C48.95 -0.95, 245.05 -0.03, 293.72 -0.21" stroke="#bf0a17" stroke-width="1" fill="none"></path></g><g transform="translate(512.1861106896068 1156.9748590914924) rotate(0 147.2561926622999 -0.8254236302357185)"><path d="M295.23 -2.06 L278.85 5.33 L280.48 -8.33 L294.33 0.96" stroke="none" stroke-width="0" fill="#bf0a17" fill-rule="evenodd"></path><path d="M293.68 0.47 C288.7 1.36, 285.61 3.06, 278.86 5.41 M294.38 0.32 C290.69 1.13, 286.03 2.81, 280.2 6.02 M281.23 6.3 C280.35 2.94, 280.79 0.25, 281.17 -6.08 M279.66 5.92 C279.78 3.55, 280.03 0.36, 280.71 -6.92 M279.66 -7.19 C284.8 -5.06, 292.23 -0.97, 292.53 -0.43 M279.64 -6.22 C284.97 -4.34, 290.36 -1.29, 294.45 0.44 M293.72 -0.21 C293.72 -0.21, 293.72 -0.21, 293.72 -0.21 M293.72 -0.21 C293.72 -0.21, 293.72 -0.21, 293.72 -0.21" stroke="#bf0a17" stroke-width="1" fill="none"></path></g></g><mask></mask><g transform="translate(738.4671166525042 10.358057609101934) rotate(0 68.5 11.5)"><text x="68.5" y="19" font-family="Helvetica, Segoe UI Emoji" font-size="20px" fill="black" text-anchor="middle" style="white-space: pre;" direction="ltr">Caching server</text></g><g stroke-linecap="round"><g transform="translate(805.969894362389 41.40760870651434) rotate(0 0.7374188359175946 611.0033076956205)"><path d="M0.05 -0.97 C0.25 202.74, 1.31 1019.04, 1.43 1222.98" stroke="black" stroke-width="1.5" fill="none" stroke-dasharray="8 9"></path></g></g><mask></mask><g stroke-linecap="round"><g transform="translate(809.6059183233938 346.09880136407537) rotate(0 125.94524518041175 1.5392063128823565)"><path d="M1.06 0.61 C43.11 1, 210.18 2.83, 251.73 3.2 M0.16 -0.12 C42.12 -0.18, 208.85 0.53, 250.94 1.24" stroke="#596979" stroke-width="1" fill="none"></path></g><g transform="translate(809.6059183233938 346.09880136407537) rotate(0 125.94524518041175 1.5392063128823565)"><path d="M252.85 0.21 L235.56 8.31 L238.38 -3.5 L250.15 1.66" stroke="none" stroke-width="0" fill="#596979" fill-rule="evenodd"></path><path d="M251.7 1.62 C247.89 1.64, 243.95 5.32, 236.89 8 M250.29 0.81 C247.57 2.14, 245.25 3.72, 236.89 7.28 M237.64 8.57 C237.67 3.2, 237.39 1.55, 236.86 -4.02 M236.86 8.04 C237.42 3.23, 237.11 -0.41, 237.2 -5.41 M236.84 -6.25 C240.17 -2.07, 244.5 -2.48, 250.22 2.31 M237.91 -5.01 C240.55 -3.67, 243.89 -2.55, 251.49 1.01 M250.94 1.24 C250.94 1.24, 250.94 1.24, 250.94 1.24 M250.94 1.24 C250.94 1.24, 250.94 1.24, 250.94 1.24" stroke="#596979" stroke-width="1" fill="none"></path></g></g><mask></mask><g transform="translate(864.1670342302848 314.8777808491345) rotate(0 68.99999999999994 11.5)"><text x="69" y="19" font-family="Helvetica, Segoe UI Emoji" font-size="20px" fill="black" text-anchor="middle" style="white-space: pre;" direction="ltr">Store response</text></g><g stroke-linecap="round"><g transform="translate(808.1492518992376 535.7392380041629) rotate(0 125.04682668386829 1.1341418192221226)"><path d="M-0.43 0.99 C41.39 1, 208.62 0.63, 250.52 0.56 M1.55 0.46 C43.23 0.58, 207.99 1.62, 249.46 1.8" stroke="#158bc2" stroke-width="1" fill="none"></path></g><g transform="translate(808.1492518992376 535.7392380041629) rotate(0 125.04682668386829 1.1341418192221226)"><path d="M251.3 1.77 L236.25 6.89 L235.86 -5.98 L250.29 3.59" stroke="none" stroke-width="0" fill="#158bc2" fill-rule="evenodd"></path><path d="M250.7 1.54 C245.15 3.76, 241.49 5.94, 235.99 7.13 M249.62 1.44 C245.65 3.3, 242.87 5.08, 235.78 7.91 M235.08 9.31 C235.29 4.52, 235.48 -0.29, 235.8 -4.15 M235.36 7.53 C235.54 4.67, 235.4 0.83, 236.39 -5.06 M234.41 -3.12 C241.2 -2.59, 245.68 0.72, 248.82 2.09 M235.18 -5.18 C239.92 -2.22, 245.21 -0.36, 250.11 2.53 M249.46 1.8 C249.46 1.8, 249.46 1.8, 249.46 1.8 M249.46 1.8 C249.46 1.8, 249.46 1.8, 249.46 1.8" stroke="#158bc2" stroke-width="1" fill="none"></path></g></g><mask></mask><g transform="translate(843.3043348101249 498.59914381429576) rotate(0 96 11.499999999999886)"><text x="96" y="19" font-family="Helvetica, Segoe UI Emoji" font-size="20px" fill="black" text-anchor="middle" style="white-space: pre;" direction="ltr">Get cached response</text></g><g stroke-linecap="round"><g transform="translate(807.4067779742661 817.6095902914226) rotate(0 239.9323147834558 0.9222447827337419)"><path d="M-0.39 0.58 C79.59 0.79, 400.05 1.7, 480.25 2.1 M1.61 -0.17 C81.41 -0.41, 399.6 -0.1, 479.41 0.13" stroke="#596979" stroke-width="1" fill="none"></path></g><g transform="translate(807.4067779742661 817.6095902914226) rotate(0 239.9323147834558 0.9222447827337419)"><path d="M477.5 1.07 L464.28 4.86 L466.07 -4.31 L478.15 0.81" stroke="none" stroke-width="0" fill="#596979" fill-rule="evenodd"></path><path d="M480.13 0.37 C475.28 3.15, 471.82 4.55, 467.26 6.6 M478.96 0.32 C475.71 1.45, 472.05 2.71, 465.46 6.62 M465.99 6.01 C464.75 4.2, 466.3 0.69, 466.23 -5.52 M465.87 6.83 C466.08 3.59, 466.07 -0.65, 466.17 -6.43 M465.84 -7.38 C469.56 -4.43, 474.26 -3.45, 480.61 0.76 M465.51 -5.57 C470.31 -3.28, 475.82 -1.26, 479.4 0.1 M479.41 0.13 C479.41 0.13, 479.41 0.13, 479.41 0.13 M479.41 0.13 C479.41 0.13, 479.41 0.13, 479.41 0.13" stroke="#596979" stroke-width="1" fill="none"></path></g></g><mask></mask><g transform="translate(823.7247653750243 783.8491402566278) rotate(0 115.5 11.5)"><text x="115.5" y="19" font-family="Helvetica, Segoe UI Emoji" font-size="20px" fill="black" text-anchor="middle" style="white-space: pre;" direction="ltr">New response available? </text></g><g stroke-linecap="round"><g transform="translate(812.0058286376687 1009.9938748941613) rotate(0 123.33875160497098 0.6414445361324397)"><path d="M-0.69 0.96 C40.52 1.01, 205.95 0.66, 247.36 0.32" stroke="#0fac7c" stroke-width="1.5" fill="none" stroke-dasharray="1.5 7"></path></g><g transform="translate(812.0058286376687 1009.9938748941613) rotate(0 123.33875160497098 0.6414445361324397)"><path d="M247.4 0.87 L233.46 6.81 L232.17 -4.66 L247.27 -1.53" stroke="none" stroke-width="0" fill="#0fac7c" fill-rule="evenodd"></path><path d="M248.57 0.93 C244.19 3.43, 238.18 4.29, 234.49 6.35 M232.74 7.37 C234.47 3.8, 232.85 -2.38, 234.75 -5.44 M234.37 -5.7 C237.81 -3.62, 242.28 -0.4, 246.76 1.06 M247.36 0.32 C247.36 0.32, 247.36 0.32, 247.36 0.32" stroke="#0fac7c" stroke-width="1.5" fill="none"></path></g></g><mask></mask><g transform="translate(872.7494147412289 970.7008499215767) rotate(0 69 11.5)"><text x="69" y="19" font-family="Helvetica, Segoe UI Emoji" font-size="20px" fill="black" text-anchor="middle" style="white-space: pre;" direction="ltr">Store response</text></g><g stroke-linecap="round"><g transform="translate(812.2924008467193 1188.4011424306573) rotate(0 123.82003159169255 -0.3096334820327229)"><path d="M0 1.04 C40.94 0.85, 205.45 0.41, 246.74 -0.06 M-1.46 0.55 C39.78 0.55, 207.66 -1.42, 249.1 -1.66" stroke="#bf0a17" stroke-width="1" fill="none"></path></g><g transform="translate(812.2924008467193 1188.4011424306573) rotate(0 123.82003159169255 -0.3096334820327229)"><path d="M250.62 -2.22 L233.66 5.94 L236.84 -7.97 L249.33 -2.36" stroke="none" stroke-width="0" fill="#bf0a17" fill-rule="evenodd"></path><path d="M250.4 -2.51 C245.09 1.29, 237.58 2.3, 235.65 5.18 M249.6 -2.37 C244.4 1.09, 238.92 2.77, 235.02 4.82 M234.59 4.67 C235.86 -1.11, 235.3 -4.19, 235.91 -6.91 M235.88 4.67 C235.82 0.62, 235.37 -2.8, 235.1 -7.81 M236.01 -6.96 C239.95 -4.21, 246.99 -3.89, 250.47 -0.5 M235.34 -7.71 C238.27 -6.75, 241.63 -4.99, 248.36 -1.2 M249.1 -1.66 C249.1 -1.66, 249.1 -1.66, 249.1 -1.66 M249.1 -1.66 C249.1 -1.66, 249.1 -1.66, 249.1 -1.66" stroke="#bf0a17" stroke-width="1" fill="none"></path></g></g><mask></mask><g transform="translate(853.6196831879877 1154.237722625263) rotate(0 95.99999999999994 11.5)"><text x="96" y="19" font-family="Helvetica, Segoe UI Emoji" font-size="20px" fill="black" text-anchor="middle" style="white-space: pre;" direction="ltr">Get cached response</text></g><g stroke-linecap="round"><g transform="translate(804.1465807692729 1221.1435116113398) rotate(0 -145.14324287719847 0.6010222795703157)"><path d="M-0.08 -0.92 C-48.32 -0.53, -241.29 1.58, -289.69 2.12 M-1.58 1.21 C-49.88 1.28, -241.93 0.54, -290.21 0.42" stroke="#bf0a17" stroke-width="1" fill="none"></path></g><g transform="translate(804.1465807692729 1221.1435116113398) rotate(0 -145.14324287719847 0.6010222795703157)"><path d="M-291.29 -0.82 L-278.05 -4.5 L-277.41 6.45 L-292.11 -0.84" stroke="none" stroke-width="0" fill="#bf0a17" fill-rule="evenodd"></path><path d="M-291.36 1.44 C-285.42 -1.29, -281.38 -3.14, -278.05 -5.05 M-290.08 0.22 C-284.88 -1.44, -280.63 -3.46, -277.28 -6.06 M-276.37 -4.8 C-276.52 -1.39, -277.76 2.28, -276.93 7.03 M-276.25 -6.1 C-276.44 -2.15, -276.31 1.17, -276.97 6.62 M-276.65 6.19 C-282.47 5.45, -287.35 1.16, -288.98 -0.48 M-276.47 7.1 C-281.96 4.94, -286.62 2.6, -290.05 0.64 M-290.21 0.42 C-290.21 0.42, -290.21 0.42, -290.21 0.42 M-290.21 0.42 C-290.21 0.42, -290.21 0.42, -290.21 0.42" stroke="#bf0a17" stroke-width="1" fill="none"></path></g></g><mask></mask><g transform="translate(550.3630234649211 1192.1272178082058) rotate(0 110 11.5)"><text x="110" y="19" font-family="Helvetica, Segoe UI Emoji" font-size="20px" fill="black" text-anchor="middle" style="white-space: pre;" direction="ltr">Return cached response</text></g><g stroke-linecap="round"><g transform="translate(1284.3010639293793 1090.4925257612913) rotate(0 -387.001232948293 0.5967759621526056)"><path d="M0.18 -0.94 C-128.74 -0.64, -645.34 0.33, -774.19 0.86 M-1.18 1.18 C-129.66 1.73, -643.18 2.26, -771.88 2.11" stroke="#bf0a17" stroke-width="1" fill="none"></path></g><g transform="translate(1284.3010639293793 1090.4925257612913) rotate(0 -387.001232948293 0.5967759621526056)"><path d="M-771.33 0.9 L-759.47 -5.9 L-759.8 7.11 L-772.7 2.93" stroke="none" stroke-width="0" fill="#bf0a17" fill-rule="evenodd"></path><path d="M-773.06 1.15 C-769.17 1.2, -764.13 -2.26, -758.58 -3.01 M-771.19 2.55 C-769.49 0.94, -766.42 -1.3, -758.65 -4.29 M-757.38 -3.37 C-759.04 1.65, -759.06 6.05, -758.17 7.97 M-758.89 -4.59 C-758.39 0.38, -758.44 4.21, -757.79 8.1 M-759.53 7.49 C-762.71 5.41, -767.1 3.91, -773.34 1.22 M-757.98 9.04 C-761.95 6.1, -766.38 5.02, -772.43 2.64 M-771.88 2.11 C-771.88 2.11, -771.88 2.11, -771.88 2.11 M-771.88 2.11 C-771.88 2.11, -771.88 2.11, -771.88 2.11" stroke="#bf0a17" stroke-width="1" fill="none"></path></g></g><mask></mask><g transform="translate(1108.8043975505866 1056.333479597813) rotate(0 76.5 11.5)"><text x="76.5" y="19" font-family="Helvetica, Segoe UI Emoji" font-size="20px" fill="black" text-anchor="middle" style="white-space: pre;" direction="ltr">304 Not Modified</text></g></svg>